<?xml version="1.0" encoding="UTF-8"?><svg id="Layer_1" xmlns="http://www.w3.org/2000/svg" viewBox="0 0 1280 209"><defs><style>.cls-1{fill:none;stroke:#f5eddd;stroke-linecap:round;stroke-width:3px;}</style></defs><path class="cls-1" d="M28.96,140.92c.89,.2,2.43,2.22,3.1,3.03,.78,.95,2.47,1.75,3.51,2.43,1.87,1.22,4.01,2.77,5.5,4.55,1.38,1.65,3.11,4.01,2.95,6.37-.17,2.53,.82,5.31-1.06,7.25-1.8,1.86-4.22,2.22-6.42,3.32-1.59,.8-4.63,2.89-5.59,4.44-.77,1.24-2.64,2.23-3.64,3.31-1.39,1.51-7.31,.96-9.01-.05-2.23-1.32-3.78-1.9-4.66-4.57-.73-2.2-1.09-4.78-.93-7.11,.18-2.63,2.08-4.21,2.34-6.73,.33-3.18-.3-6-.52-9.13-.35-4.83-2.04-12.96,4.34-13.27,4.55-.22,11.74,3.13,12.57,8.4m4.66,36.3c1.1,.09,4.5-.22,4.92,.83,.55,1.35,1.43,3.15,1.48,4.61,.05,1.56,1.02,2.94,.82,4.56-.14,1.15-3,.56-3.71,.5-2.6-.22-6.66,.38-7.49-3-.45-1.86-.28-4.77,.24-6.6,.3-1.06,2.72-3.61,3.42-1.75m7.05-36.93c.03-.48,.05-.93,.09-1.34m0,0c.12-1.53,.41-2.67,2.11-3.52,1.76-.88,3.42-1.88,5.42-1.82,2.14,.06,2.66-.61,4.23,1.38,.98,1.24,1.16,3.61,.04,4.88-2.47,2.8-3.3,5.65-7.33,5.31-1.36-.12-2.89-.46-4.05-1.25-1.13-.77-.57-3.57-.42-4.97Zm0,0c.01-.1,.02-.19,.03-.28m5.36,31.47c.54-.02,2.93-1.92,3.57-2.32,1.42-.9,4.11,.1,4.76,1.59,.56,1.27,1.92,2.27,2.46,3.7,.67,1.77,.83,3.07,.7,4.96-.17,2.4-5.2,3.31-6.75,2.05-1.07-.87-1.39-1.73-2.01-2.98-.51-1.03-1.53-1.58-1.81-2.83-.17-.77-.97-1.28-1.06-1.93-.09-.7,.08-1.53,.13-2.23Zm3.73-16c.77-4.74,6.63-4.37,9.66-3.63,3.17,.77,4.35,4.66,3.99,7.66-.34,2.82-7.6,1.79-9.11,1.66-1.23-.11-6.9-4.66-4.54-5.69Z"/><path class="cls-1" d="M103.36,73.48c.91,.11,2.6,1.97,3.34,2.71,.86,.87,2.61,1.5,3.7,2.08,1.96,1.03,4.23,2.37,5.86,3.99,1.52,1.51,3.43,3.69,3.47,6.06,.04,2.54,1.26,5.21-.45,7.33-1.64,2.03-4.01,2.63-6.11,3.95-1.51,.95-4.36,3.33-5.2,4.97-.67,1.31-2.44,2.49-3.34,3.66-1.26,1.64-7.2,1.68-8.97,.84-2.33-1.1-3.92-1.51-5.02-4.09-.91-2.12-1.49-4.66-1.53-6.99-.04-2.63,1.72-4.41,1.77-6.94,.06-3.21-.8-5.95-1.29-9.05-.75-4.78-3.12-12.71,3.21-13.65,4.51-.67,11.95,1.96,13.22,7.13m7.68,35.71c1.11-.01,4.46-.66,4.97,.34,.66,1.29,1.69,3,1.86,4.45,.18,1.55,1.26,2.83,1.19,4.46-.04,1.15-2.94,.85-3.66,.86-2.6,.03-6.6,1.04-7.71-2.25-.61-1.81-.68-4.72-.31-6.6,.21-1.08,2.4-3.86,3.26-2.08m3.92-37.49c0-.48-.03-.93-.03-1.35m0,0c0-1.54,.18-2.7,1.8-3.72,1.68-1.05,3.25-2.21,5.24-2.35,2.14-.15,2.6-.87,4.33,.96,1.08,1.14,1.46,3.48,.45,4.85-2.22,3.04-2.81,5.96-6.85,6.01-1.36,.02-2.91-.17-4.14-.85-1.18-.66-.86-3.5-.83-4.91Zm0,0c0-.1,0-.2,0-.28m7.98,30.82c.53-.07,2.76-2.2,3.36-2.67,1.33-1.04,4.1-.31,4.87,1.11,.66,1.21,2.1,2.07,2.76,3.44,.81,1.7,1.09,2.97,1.12,4.87,.04,2.41-4.9,3.81-6.54,2.71-1.14-.76-1.53-1.59-2.25-2.77-.59-.98-1.66-1.43-2.04-2.64-.24-.75-1.08-1.18-1.22-1.81-.15-.69-.04-1.53-.06-2.24Zm2.37-16.31c.37-4.8,6.23-5.01,9.31-4.57,3.22,.46,4.72,4.22,4.61,7.24-.1,2.84-7.42,2.54-8.92,2.56-1.23,.02-7.26-3.96-5-5.22Z"/><path class="cls-1" d="M17.12,16.42c.37,4.06,4.95,6.35,7.83,8.17,.77,.49,2.01,1,2.86,1.37,1.03,.45,1.93,1.31,2.95,1.81,1.38,.68,2.85,2.77,3.47,4.2,.87,2.01,.9,4.18,.98,6.4,.15,4.1-3.89,5.09-6.61,7.05-1.78,1.29-4,2.38-5.91,3.45-1.73,.97-3.02,2.55-4.61,3.75-1,.76-1.52,1.46-2.72,1.84-1.81,.56-3.76,.34-5.61,.68-1.17,.21-2.65,.35-3.62-.62-1.18-1.19-3.06-4.3-3.12-6.1-.09-2.51-.61-5.18,.6-7.42,1.14-2.12,1.72-3.62,1.63-6.11-.1-2.69,.42-6.7-.41-9.26-1.24-3.85-2.46-6.25,.31-10.23,1.52-2.18,5.89-2.17,8.12-1.59,1.22,.32,2.53,.62,3.48,1.53,.68,.65,1.07,2.37,.72,1.08m24.83,30.35c.15,1.01,2.39,1.57,3.05,2.18,.98,.89,1.5,1.94,1.55,3.36,.12,3.22-3.34,3.62-5.56,3.7-3.02,.11-4.6-3.56-5.88-5.85-2.35-4.21,5.75-5.18,7.81-4.52m8.61-15.4c1.01,.1,2.06,3.29,1.32,4.16-.47,.55-2.29,1.48-2.99,1.79-2.23,.97-5.52,2.27-7.92,.95-2.82-1.56-1.44-5.97,.56-7.46,2.39-1.78,6.65-1.38,9.01,.2m-17.11-13.71c2.71-.1,6.4-1.27,6.54,2.7,.11,3.06-1.91,4.12-4.64,4.22-3.09,.11-8.97,1.31-8.24-4.27,.51-3.9,9.07-1.96,9-3.85m-11.06,41.61c2.9-.11,4.83,.7,6.56,3.35,2.08,3.18-3.03,4.24-4.91,4.31-2.49,.09-6.77,.85-6.91-3.06-.04-1.08-.49-3.08,.27-3.97,.97-1.13,3.63-.58,4.99-.63Z"/><path class="cls-1" d="M191.22,136.6c.37,4.06,4.95,6.35,7.83,8.17,.77,.49,2.01,1,2.86,1.37,1.03,.45,1.93,1.31,2.95,1.81,1.38,.68,2.85,2.77,3.47,4.2,.86,2.01,.9,4.18,.98,6.4,.15,4.1-3.89,5.09-6.61,7.05-1.78,1.29-4,2.38-5.91,3.45-1.73,.97-3.02,2.55-4.61,3.75-1.01,.76-1.52,1.46-2.72,1.84-1.81,.56-3.76,.34-5.61,.68-1.17,.21-2.65,.35-3.62-.62-1.18-1.19-3.05-4.3-3.12-6.1-.09-2.51-.61-5.18,.6-7.42,1.14-2.12,1.72-3.62,1.63-6.11-.1-2.69,.42-6.7-.41-9.26-1.24-3.84-2.46-6.25,.31-10.23,1.52-2.18,5.89-2.17,8.12-1.59,1.22,.32,2.53,.62,3.48,1.53,.68,.65,1.06,2.38,.72,1.08m24.83,30.35c.15,1.01,2.39,1.57,3.05,2.18,.98,.89,1.5,1.94,1.55,3.35,.12,3.22-3.34,3.62-5.56,3.7-3.02,.11-4.6-3.56-5.88-5.85-2.35-4.21,5.75-5.18,7.81-4.52m8.61-15.4c1.01,.1,2.06,3.29,1.32,4.16-.47,.55-2.29,1.48-2.99,1.79-2.23,.97-5.52,2.27-7.92,.95-2.82-1.56-1.44-5.97,.56-7.46,2.39-1.78,6.65-1.38,9.01,.2m-17.11-13.71c2.71-.1,6.4-1.27,6.54,2.7,.11,3.06-1.91,4.12-4.64,4.22-3.09,.11-8.97,1.31-8.24-4.27,.51-3.9,9.07-1.96,9-3.85m-11.06,41.61c2.9-.11,4.83,.7,6.56,3.35,2.08,3.18-3.03,4.24-4.91,4.31-2.49,.09-6.77,.85-6.91-3.06-.04-1.08-.49-3.08,.27-3.98,.97-1.13,3.63-.58,4.99-.63Z"/><path class="cls-1" d="M186.61,33.73c2.71,2.84,7.55,1.37,10.82,.73,.88-.17,2.12-.66,2.98-.97,1.05-.38,2.25-.36,3.32-.69,1.45-.45,3.82,.11,5.14,.77,1.86,.93,3.19,2.56,4.58,4.2,2.57,3.03,.1,6.62-.78,10.03-.58,2.24-1.61,4.63-2.41,6.79-.73,1.96-.76,4.07-1.25,6.11-.31,1.29-.28,2.19-.96,3.32-1.04,1.71-2.64,2.91-3.84,4.47-.76,.99-1.8,2.14-3.12,2.07-1.6-.08-4.89-1.13-6.01-2.46-1.57-1.85-3.56-3.53-3.99-6.09-.4-2.42-.87-3.97-2.43-5.81-1.68-1.99-3.69-5.41-5.85-6.79-3.24-2.06-5.6-3.04-5.89-8.03-.16-2.74,3.16-5.81,5.2-6.93,1.12-.62,2.28-1.31,3.55-1.29,.9,.02,2.23,1.06,1.19,.32m36.98,5.69c.72,.66,2.75-.48,3.62-.49,1.28-.01,2.3,.42,3.18,1.47,2.01,2.38-.37,5.12-1.99,6.74-2.22,2.21-5.61,.52-7.96-.33-4.3-1.56,1.25-8,3.21-8.95m-2.7-17.82c.82-.63,3.53,1.06,3.49,2.25-.03,.75-.85,2.74-1.19,3.47-1.1,2.31-2.82,5.62-5.43,6.3-3.07,.79-4.66-3.54-4.04-6.09,.74-3.04,4.21-5.74,6.95-6.2m-21.17,1.58c1.99-1.98,4.09-5.47,6.57-2.54,1.92,2.26,1.02,4.49-.99,6.48-2.27,2.26-6.01,7.31-8.8,2.54-1.95-3.34,5.69-7.88,4.51-9.28m16.54,39.56c2.13-2.12,4.08-2.87,6.98-2.06,3.48,.97,.24,5.37-1.14,6.75-1.83,1.82-4.62,5.42-7.06,2.53-.67-.79-2.22-2.01-2.17-3.23,.06-1.55,2.4-3,3.4-4Z"/><path class="cls-1" d="M727.96,147.92c.89,.2,2.43,2.22,3.1,3.03,.78,.95,2.47,1.75,3.51,2.43,1.87,1.22,4.01,2.77,5.5,4.55,1.38,1.65,3.11,4.01,2.95,6.37-.17,2.53,.82,5.31-1.06,7.25-1.8,1.86-4.22,2.22-6.42,3.32-1.59,.8-4.63,2.89-5.59,4.44-.77,1.24-2.64,2.23-3.64,3.31-1.39,1.51-7.31,.96-9.01-.05-2.23-1.32-3.78-1.9-4.66-4.57-.73-2.2-1.09-4.78-.93-7.11,.18-2.63,2.08-4.21,2.34-6.73,.33-3.18-.29-6-.52-9.13-.35-4.83-2.04-12.96,4.34-13.27,4.54-.22,11.74,3.13,12.57,8.4m4.66,36.3c1.1,.09,4.5-.22,4.92,.83,.54,1.35,1.43,3.15,1.48,4.61,.05,1.56,1.01,2.94,.82,4.56-.14,1.15-3,.56-3.71,.5-2.6-.22-6.66,.38-7.49-3-.45-1.86-.28-4.77,.24-6.6,.3-1.06,2.72-3.61,3.42-1.75m7.05-36.93c.03-.48,.05-.93,.09-1.34m0,0c.12-1.53,.41-2.67,2.11-3.52,1.76-.88,3.42-1.88,5.42-1.82,2.14,.06,2.66-.61,4.23,1.38,.98,1.24,1.16,3.61,.04,4.88-2.47,2.8-3.3,5.65-7.33,5.31-1.36-.12-2.89-.46-4.05-1.25-1.13-.77-.57-3.57-.42-4.97Zm0,0c.01-.1,.02-.19,.03-.28m5.36,31.47c.53-.02,2.93-1.92,3.57-2.32,1.42-.9,4.11,.1,4.76,1.59,.55,1.27,1.92,2.27,2.46,3.7,.67,1.77,.84,3.07,.71,4.96-.17,2.4-5.2,3.31-6.75,2.05-1.07-.87-1.39-1.73-2.01-2.98-.51-1.03-1.53-1.58-1.81-2.83-.17-.77-.97-1.28-1.06-1.93-.09-.7,.08-1.53,.13-2.23Zm3.73-16c.77-4.74,6.63-4.37,9.66-3.63,3.17,.77,4.35,4.66,3.99,7.66-.34,2.82-7.6,1.79-9.1,1.66-1.23-.11-6.9-4.66-4.54-5.69Z"/><path class="cls-1" d="M802.36,80.48c.91,.11,2.6,1.97,3.34,2.71,.86,.87,2.61,1.5,3.7,2.08,1.96,1.03,4.23,2.37,5.86,3.99,1.52,1.51,3.43,3.69,3.47,6.06,.04,2.54,1.26,5.21-.45,7.33-1.64,2.03-4.01,2.63-6.11,3.94-1.52,.95-4.36,3.33-5.2,4.97-.67,1.31-2.44,2.49-3.34,3.66-1.26,1.64-7.2,1.68-8.97,.84-2.33-1.1-3.92-1.51-5.02-4.09-.91-2.12-1.49-4.66-1.53-6.99-.04-2.63,1.72-4.4,1.77-6.94,.06-3.21-.8-5.95-1.29-9.05-.75-4.78-3.12-12.71,3.21-13.65,4.51-.67,11.95,1.96,13.22,7.13m7.68,35.71c1.11-.01,4.46-.66,4.97,.34,.66,1.29,1.69,3,1.86,4.45,.18,1.55,1.26,2.83,1.2,4.46-.04,1.15-2.94,.85-3.66,.86-2.6,.03-6.6,1.04-7.7-2.25-.61-1.81-.68-4.72-.31-6.6,.21-1.08,2.41-3.86,3.26-2.08m3.92-37.49c0-.48-.03-.93-.03-1.35m0,0c0-1.54,.18-2.7,1.8-3.72,1.67-1.05,3.25-2.21,5.24-2.35,2.14-.15,2.6-.87,4.33,.96,1.08,1.14,1.45,3.48,.45,4.85-2.22,3.04-2.81,5.96-6.85,6.01-1.36,.02-2.91-.17-4.14-.85-1.18-.66-.87-3.5-.83-4.91Zm0,0c0-.1,0-.2,0-.28m7.98,30.82c.53-.07,2.76-2.2,3.36-2.67,1.33-1.04,4.1-.31,4.87,1.11,.66,1.21,2.1,2.07,2.76,3.44,.81,1.7,1.09,2.97,1.12,4.87,.04,2.41-4.9,3.81-6.54,2.71-1.14-.76-1.53-1.59-2.25-2.77-.59-.98-1.66-1.43-2.04-2.64-.24-.75-1.08-1.18-1.22-1.81-.15-.69-.04-1.53-.05-2.24Zm2.37-16.31c.37-4.8,6.23-5.01,9.31-4.57,3.22,.46,4.72,4.22,4.61,7.24-.1,2.84-7.42,2.54-8.92,2.56-1.23,.02-7.26-3.96-5-5.22Z"/><path class="cls-1" d="M641.37,89.11c-1.2,3.85,2.11,7.99,4.05,10.92,.52,.79,1.46,1.8,2.09,2.52,.77,.87,1.27,2.05,2.01,2.96,1,1.24,1.55,3.79,1.57,5.37,.03,2.22-.76,4.21-1.53,6.26-1.42,3.8-5.48,2.89-8.71,3.46-2.12,.38-4.55,.38-6.7,.5-1.94,.11-3.73,.97-5.64,1.35-1.2,.24-1.94,.65-3.18,.46-1.87-.29-3.56-1.36-5.38-1.89-1.15-.33-2.56-.86-3.07-2.18-.63-1.61-1.16-5.27-.54-6.94,.87-2.32,1.41-4.98,3.36-6.48,1.85-1.42,2.94-2.53,3.8-4.83,.93-2.49,2.92-5.9,3.14-8.61,.33-4.05,.12-6.78,4.17-9.16,2.22-1.31,6.21,.65,8.02,2.18,1,.84,2.08,1.69,2.6,2.94,.38,.89,.07,2.64,.25,1.3m11.17,38.68c-.24,.98,1.58,2.49,1.96,3.34,.56,1.25,.64,2.43,.15,3.74-1.12,2.98-4.43,1.8-6.48,.89-2.8-1.25-2.85-5.29-3.15-7.95-.55-4.88,7.21-2.15,8.85-.63m13.7-10.17c.88,.54,.64,3.91-.38,4.37-.64,.29-2.65,.33-3.41,.29-2.4-.11-5.9-.39-7.59-2.67-1.98-2.68,.95-6.07,3.34-6.53,2.85-.55,6.6,1.71,8.16,4.2m-10.43-20.11c2.51,1.12,6.33,1.7,4.95,5.37-1.06,2.83-3.3,2.89-5.83,1.77-2.87-1.28-8.69-2.81-5.9-7.56,1.95-3.32,9.03,2.26,9.68,.52m-25.89,32.91c2.69,1.2,4.15,2.79,4.72,5.98,.69,3.82-4.38,2.51-6.12,1.73-2.31-1.03-6.51-2.24-5.15-5.86,.37-.99,.72-3.02,1.76-3.49,1.31-.6,3.54,1.09,4.8,1.65Z"/><path class="cls-1" d="M716.12,23.42c.37,4.06,4.95,6.35,7.83,8.17,.77,.49,2.01,1,2.86,1.37,1.03,.45,1.93,1.31,2.95,1.81,1.38,.68,2.85,2.77,3.47,4.2,.87,2.01,.9,4.18,.98,6.4,.15,4.1-3.89,5.09-6.61,7.05-1.78,1.29-4,2.38-5.91,3.45-1.73,.97-3.02,2.55-4.61,3.75-1.01,.76-1.52,1.46-2.72,1.84-1.81,.56-3.76,.34-5.61,.68-1.17,.21-2.65,.35-3.62-.62-1.18-1.19-3.05-4.3-3.12-6.1-.09-2.51-.61-5.18,.6-7.42,1.14-2.12,1.72-3.62,1.63-6.11-.1-2.69,.42-6.7-.41-9.26-1.24-3.85-2.46-6.25,.31-10.23,1.52-2.18,5.89-2.17,8.12-1.59,1.22,.32,2.53,.62,3.48,1.53,.68,.65,1.07,2.37,.72,1.08m24.83,30.35c.15,1.01,2.39,1.57,3.05,2.18,.98,.89,1.5,1.94,1.55,3.36,.11,3.22-3.34,3.62-5.56,3.7-3.02,.11-4.6-3.56-5.88-5.85-2.35-4.21,5.75-5.18,7.81-4.52m8.61-15.4c1.01,.1,2.06,3.29,1.32,4.16-.47,.55-2.29,1.48-2.99,1.79-2.23,.97-5.52,2.27-7.92,.95-2.82-1.56-1.44-5.97,.56-7.46,2.39-1.78,6.65-1.38,9.01,.2m-17.11-13.71c2.71-.1,6.4-1.27,6.54,2.7,.11,3.06-1.91,4.12-4.64,4.22-3.09,.11-8.97,1.31-8.24-4.27,.51-3.9,9.07-1.96,9-3.85m-11.06,41.61c2.9-.11,4.83,.7,6.56,3.35,2.08,3.18-3.03,4.24-4.91,4.31-2.49,.09-6.77,.85-6.91-3.06-.04-1.08-.49-3.08,.27-3.97,.97-1.13,3.63-.58,4.99-.63Z"/><path class="cls-1" d="M890.22,143.6c.37,4.06,4.95,6.35,7.83,8.17,.77,.49,2.01,1,2.86,1.37,1.03,.45,1.93,1.31,2.95,1.81,1.38,.68,2.85,2.77,3.47,4.2,.86,2.01,.9,4.18,.98,6.4,.15,4.1-3.89,5.09-6.61,7.05-1.78,1.29-4,2.38-5.91,3.45-1.73,.97-3.02,2.55-4.61,3.75-1.01,.76-1.52,1.46-2.72,1.84-1.81,.56-3.76,.34-5.61,.68-1.17,.21-2.66,.35-3.62-.62-1.18-1.19-3.05-4.3-3.12-6.1-.09-2.51-.61-5.18,.6-7.42,1.14-2.12,1.72-3.62,1.63-6.11-.1-2.69,.42-6.7-.41-9.26-1.24-3.84-2.46-6.25,.31-10.23,1.52-2.18,5.89-2.17,8.12-1.59,1.22,.32,2.53,.62,3.48,1.53,.68,.65,1.07,2.38,.72,1.08m24.83,30.35c.15,1.01,2.39,1.57,3.05,2.18,.98,.89,1.5,1.94,1.55,3.35,.11,3.22-3.34,3.62-5.56,3.7-3.02,.11-4.6-3.56-5.88-5.85-2.35-4.21,5.75-5.18,7.81-4.52m8.61-15.4c1.01,.1,2.06,3.29,1.32,4.16-.47,.55-2.29,1.48-2.99,1.79-2.23,.97-5.52,2.27-7.92,.95-2.82-1.56-1.44-5.97,.56-7.46,2.39-1.78,6.65-1.38,9.01,.2m-17.11-13.71c2.71-.1,6.4-1.27,6.54,2.7,.11,3.06-1.91,4.12-4.63,4.22-3.09,.11-8.97,1.31-8.24-4.27,.51-3.9,9.07-1.96,9-3.85m-11.06,41.61c2.9-.11,4.83,.7,6.56,3.35,2.08,3.18-3.03,4.24-4.91,4.31-2.49,.09-6.77,.85-6.91-3.06-.04-1.08-.49-3.08,.27-3.98,.97-1.13,3.63-.58,4.99-.63Z"/><path class="cls-1" d="M885.61,40.73c2.71,2.84,7.55,1.37,10.82,.73,.88-.17,2.12-.66,2.98-.97,1.05-.38,2.25-.36,3.32-.69,1.45-.45,3.82,.11,5.14,.77,1.86,.93,3.19,2.56,4.58,4.2,2.57,3.03,.1,6.62-.78,10.03-.58,2.24-1.61,4.63-2.41,6.79-.73,1.96-.76,4.07-1.25,6.11-.31,1.29-.28,2.19-.96,3.32-1.03,1.71-2.64,2.91-3.84,4.47-.76,.99-1.8,2.14-3.12,2.07-1.6-.08-4.89-1.13-6.01-2.46-1.57-1.85-3.56-3.53-3.99-6.09-.4-2.42-.87-3.97-2.43-5.81-1.68-1.99-3.69-5.41-5.85-6.79-3.24-2.06-5.6-3.04-5.89-8.03-.16-2.74,3.16-5.81,5.2-6.93,1.12-.62,2.28-1.31,3.55-1.29,.9,.02,2.23,1.06,1.19,.32m36.98,5.69c.72,.66,2.75-.48,3.62-.49,1.28-.01,2.3,.42,3.18,1.47,2.01,2.38-.37,5.12-1.99,6.74-2.22,2.21-5.61,.52-7.96-.33-4.3-1.56,1.25-8,3.21-8.95m-2.7-17.82c.82-.63,3.53,1.06,3.49,2.25-.03,.75-.85,2.74-1.19,3.47-1.1,2.31-2.82,5.62-5.43,6.3-3.07,.79-4.66-3.54-4.04-6.09,.74-3.04,4.21-5.74,6.95-6.2m-21.17,1.58c1.99-1.98,4.09-5.47,6.57-2.54,1.92,2.26,1.02,4.49-.98,6.48-2.27,2.26-6.01,7.31-8.8,2.54-1.95-3.34,5.7-7.88,4.51-9.28m16.54,39.56c2.13-2.12,4.08-2.87,6.98-2.06,3.48,.97,.24,5.37-1.14,6.75-1.83,1.82-4.62,5.42-7.06,2.53-.67-.79-2.22-2.01-2.17-3.23,.06-1.55,2.4-3,3.4-4Z"/><path class="cls-1" d="M397.96,140.92c.89,.2,2.43,2.22,3.1,3.03,.78,.95,2.47,1.75,3.51,2.43,1.87,1.22,4.01,2.77,5.5,4.55,1.38,1.65,3.11,4.01,2.95,6.37-.17,2.53,.82,5.31-1.06,7.25-1.8,1.86-4.22,2.22-6.42,3.32-1.59,.8-4.63,2.89-5.6,4.44-.77,1.24-2.64,2.23-3.64,3.31-1.39,1.51-7.31,.96-9.01-.05-2.23-1.32-3.78-1.9-4.66-4.57-.73-2.2-1.09-4.78-.93-7.11,.18-2.63,2.08-4.21,2.34-6.73,.33-3.18-.3-6-.52-9.13-.35-4.83-2.04-12.96,4.34-13.27,4.55-.22,11.74,3.13,12.57,8.4m4.66,36.3c1.1,.09,4.5-.22,4.92,.83,.55,1.35,1.43,3.15,1.48,4.61,.05,1.56,1.02,2.94,.82,4.56-.14,1.15-3,.56-3.71,.5-2.6-.22-6.66,.38-7.49-3-.45-1.86-.28-4.77,.24-6.6,.3-1.06,2.72-3.61,3.42-1.75m7.06-36.93c.03-.48,.05-.93,.09-1.34m0,0c.12-1.53,.41-2.67,2.11-3.52,1.76-.88,3.42-1.88,5.42-1.82,2.14,.06,2.66-.61,4.23,1.38,.98,1.24,1.16,3.61,.04,4.88-2.47,2.8-3.3,5.65-7.33,5.31-1.36-.12-2.89-.46-4.05-1.25-1.13-.77-.57-3.57-.42-4.97Zm0,0c.01-.1,.02-.19,.03-.28m5.36,31.47c.54-.02,2.93-1.92,3.57-2.32,1.42-.9,4.11,.1,4.76,1.59,.55,1.27,1.92,2.27,2.46,3.7,.67,1.77,.83,3.07,.71,4.96-.17,2.4-5.2,3.31-6.75,2.05-1.07-.87-1.39-1.73-2.01-2.98-.51-1.03-1.53-1.58-1.81-2.83-.17-.77-.97-1.28-1.06-1.93-.09-.7,.08-1.53,.13-2.23Zm3.73-16c.77-4.74,6.63-4.37,9.66-3.63,3.17,.77,4.35,4.66,3.99,7.66-.34,2.82-7.6,1.79-9.1,1.66-1.23-.11-6.9-4.66-4.54-5.69Z"/><path class="cls-1" d="M472.36,73.48c.91,.11,2.6,1.97,3.34,2.71,.86,.87,2.61,1.5,3.7,2.08,1.97,1.03,4.23,2.37,5.86,3.99,1.52,1.51,3.43,3.69,3.47,6.06,.04,2.54,1.26,5.21-.45,7.33-1.64,2.03-4.02,2.63-6.11,3.95-1.51,.95-4.36,3.33-5.2,4.97-.67,1.31-2.44,2.49-3.34,3.66-1.26,1.64-7.2,1.68-8.97,.84-2.33-1.1-3.92-1.51-5.02-4.09-.91-2.12-1.49-4.66-1.52-6.99-.04-2.63,1.72-4.41,1.77-6.94,.06-3.21-.8-5.95-1.29-9.05-.75-4.78-3.12-12.71,3.21-13.65,4.51-.67,11.95,1.96,13.22,7.13m7.68,35.71c1.11-.01,4.46-.66,4.97,.34,.66,1.29,1.69,3,1.86,4.45,.18,1.55,1.26,2.83,1.19,4.46-.04,1.15-2.94,.85-3.66,.86-2.6,.03-6.6,1.04-7.7-2.25-.61-1.81-.68-4.72-.31-6.6,.21-1.08,2.4-3.86,3.26-2.08m3.92-37.49c0-.48-.02-.93-.03-1.35m0,0c0-1.54,.18-2.7,1.8-3.72,1.67-1.05,3.25-2.21,5.24-2.35,2.14-.15,2.6-.87,4.33,.96,1.08,1.14,1.46,3.48,.45,4.85-2.22,3.04-2.81,5.96-6.85,6.01-1.37,.02-2.91-.17-4.14-.85-1.18-.66-.86-3.5-.83-4.91Zm0,0c0-.1,0-.2,0-.28m7.98,30.82c.53-.07,2.76-2.2,3.36-2.67,1.33-1.04,4.1-.31,4.87,1.11,.66,1.21,2.11,2.07,2.76,3.44,.81,1.7,1.09,2.97,1.12,4.87,.04,2.41-4.9,3.81-6.55,2.71-1.13-.76-1.53-1.59-2.25-2.77-.59-.98-1.66-1.43-2.04-2.64-.24-.75-1.08-1.18-1.22-1.81-.15-.69-.05-1.53-.06-2.24Zm2.37-16.31c.37-4.8,6.23-5.01,9.31-4.57,3.22,.46,4.72,4.22,4.61,7.24-.1,2.84-7.42,2.54-8.92,2.56-1.23,.02-7.26-3.96-5-5.22Z"/><path class="cls-1" d="M311.37,82.11c-1.21,3.85,2.11,7.99,4.05,10.92,.52,.79,1.46,1.8,2.09,2.52,.77,.87,1.27,2.05,2.01,2.96,1,1.24,1.55,3.79,1.57,5.37,.03,2.22-.76,4.21-1.53,6.26-1.42,3.8-5.48,2.89-8.71,3.46-2.12,.38-4.55,.38-6.7,.5-1.94,.11-3.73,.97-5.64,1.35-1.2,.24-1.94,.65-3.18,.46-1.87-.29-3.56-1.36-5.38-1.89-1.15-.33-2.56-.86-3.07-2.18-.63-1.61-1.16-5.27-.54-6.94,.87-2.32,1.41-4.98,3.36-6.48,1.85-1.42,2.94-2.53,3.8-4.83,.93-2.49,2.92-5.9,3.14-8.61,.32-4.05,.12-6.78,4.17-9.16,2.21-1.31,6.21,.65,8.02,2.18,1,.84,2.08,1.69,2.6,2.94,.38,.89,.07,2.64,.25,1.3m11.17,38.68c-.24,.98,1.58,2.49,1.96,3.34,.56,1.25,.64,2.43,.15,3.74-1.12,2.98-4.43,1.8-6.48,.89-2.8-1.25-2.85-5.29-3.15-7.95-.55-4.88,7.21-2.15,8.85-.63m13.7-10.17c.88,.54,.64,3.91-.38,4.37-.64,.29-2.65,.33-3.41,.29-2.4-.11-5.9-.39-7.59-2.67-1.99-2.68,.95-6.07,3.34-6.53,2.86-.55,6.6,1.71,8.16,4.2m-10.43-20.11c2.51,1.12,6.33,1.7,4.95,5.37-1.06,2.83-3.3,2.89-5.83,1.77-2.87-1.27-8.69-2.81-5.9-7.56,1.94-3.32,9.03,2.26,9.68,.52m-25.89,32.91c2.69,1.2,4.15,2.8,4.72,5.98,.69,3.82-4.38,2.51-6.12,1.73-2.31-1.03-6.51-2.24-5.15-5.86,.37-.99,.72-3.02,1.76-3.49,1.31-.6,3.54,1.09,4.8,1.65Z"/><path class="cls-1" d="M386.12,16.42c.37,4.06,4.95,6.35,7.83,8.17,.77,.49,2.01,1,2.86,1.37,1.03,.45,1.93,1.31,2.95,1.81,1.38,.68,2.85,2.77,3.47,4.2,.87,2.01,.9,4.18,.98,6.4,.15,4.1-3.89,5.09-6.61,7.05-1.78,1.29-4,2.38-5.91,3.45-1.73,.97-3.02,2.55-4.61,3.75-1,.76-1.52,1.46-2.72,1.84-1.81,.56-3.76,.34-5.61,.68-1.17,.21-2.65,.35-3.62-.62-1.18-1.19-3.05-4.3-3.12-6.1-.09-2.51-.61-5.18,.6-7.42,1.14-2.12,1.72-3.62,1.63-6.11-.1-2.69,.42-6.7-.41-9.26-1.24-3.85-2.46-6.25,.31-10.23,1.52-2.18,5.89-2.17,8.12-1.59,1.22,.32,2.53,.62,3.48,1.53,.68,.65,1.07,2.37,.72,1.08m24.83,30.35c.15,1.01,2.39,1.57,3.05,2.18,.98,.89,1.5,1.94,1.55,3.36,.11,3.22-3.34,3.62-5.56,3.7-3.02,.11-4.6-3.56-5.88-5.85-2.35-4.21,5.75-5.18,7.81-4.52m8.61-15.4c1.01,.1,2.06,3.29,1.32,4.16-.47,.55-2.29,1.48-2.99,1.79-2.23,.97-5.52,2.27-7.92,.95-2.82-1.56-1.44-5.97,.56-7.46,2.39-1.78,6.65-1.38,9.01,.2m-17.11-13.71c2.71-.1,6.4-1.27,6.54,2.7,.11,3.06-1.91,4.12-4.63,4.22-3.09,.11-8.97,1.31-8.24-4.27,.51-3.9,9.07-1.96,9-3.85m-11.06,41.61c2.9-.11,4.83,.7,6.56,3.35,2.08,3.18-3.03,4.24-4.91,4.31-2.49,.09-6.77,.85-6.91-3.06-.04-1.08-.49-3.08,.27-3.97,.97-1.13,3.63-.58,4.99-.63Z"/><path class="cls-1" d="M560.22,136.6c.37,4.06,4.95,6.35,7.83,8.17,.77,.49,2.01,1,2.86,1.37,1.03,.45,1.93,1.31,2.95,1.81,1.38,.68,2.85,2.77,3.47,4.2,.86,2.01,.9,4.18,.98,6.4,.15,4.1-3.89,5.09-6.61,7.05-1.78,1.29-4,2.38-5.91,3.45-1.73,.97-3.02,2.55-4.61,3.75-1.01,.76-1.52,1.46-2.72,1.84-1.81,.56-3.76,.34-5.61,.68-1.17,.21-2.66,.35-3.62-.62-1.18-1.19-3.05-4.3-3.12-6.1-.09-2.51-.61-5.18,.6-7.42,1.14-2.12,1.72-3.62,1.63-6.11-.1-2.69,.42-6.7-.41-9.26-1.24-3.84-2.46-6.25,.31-10.23,1.52-2.18,5.89-2.17,8.12-1.59,1.22,.32,2.53,.62,3.48,1.53,.68,.65,1.07,2.38,.72,1.08m24.83,30.35c.15,1.01,2.39,1.57,3.05,2.18,.98,.89,1.5,1.94,1.55,3.35,.11,3.22-3.34,3.62-5.56,3.7-3.02,.11-4.6-3.56-5.88-5.85-2.35-4.21,5.75-5.18,7.81-4.52m8.61-15.4c1.01,.1,2.06,3.29,1.32,4.16-.47,.55-2.29,1.48-2.99,1.79-2.23,.97-5.52,2.27-7.92,.95-2.82-1.56-1.44-5.97,.56-7.46,2.39-1.78,6.65-1.38,9.01,.2m-17.11-13.71c2.71-.1,6.4-1.27,6.54,2.7,.11,3.06-1.91,4.12-4.63,4.22-3.09,.11-8.97,1.31-8.24-4.27,.51-3.9,9.07-1.96,9-3.85m-11.06,41.61c2.9-.11,4.83,.7,6.56,3.35,2.08,3.18-3.03,4.24-4.91,4.31-2.49,.09-6.77,.85-6.91-3.06-.04-1.08-.49-3.08,.27-3.98,.97-1.13,3.63-.58,4.99-.63Z"/><path class="cls-1" d="M555.61,33.73c2.71,2.84,7.55,1.37,10.82,.73,.88-.17,2.12-.66,2.98-.97,1.05-.38,2.25-.36,3.32-.69,1.45-.45,3.82,.11,5.14,.77,1.86,.93,3.19,2.56,4.58,4.2,2.57,3.03,.1,6.62-.78,10.03-.58,2.24-1.61,4.63-2.41,6.79-.73,1.96-.76,4.07-1.25,6.11-.31,1.29-.28,2.19-.96,3.32-1.03,1.71-2.64,2.91-3.84,4.47-.76,.99-1.8,2.14-3.12,2.07-1.6-.08-4.89-1.13-6.01-2.46-1.57-1.85-3.56-3.53-3.99-6.09-.4-2.42-.87-3.97-2.43-5.81-1.68-1.99-3.69-5.41-5.85-6.79-3.24-2.06-5.6-3.04-5.89-8.03-.16-2.74,3.16-5.81,5.2-6.93,1.12-.62,2.28-1.31,3.55-1.29,.9,.02,2.23,1.06,1.19,.32m36.98,5.69c.72,.66,2.75-.48,3.62-.49,1.28-.01,2.3,.42,3.18,1.47,2.01,2.38-.37,5.12-1.99,6.74-2.22,2.21-5.61,.52-7.96-.33-4.3-1.56,1.25-8,3.21-8.95m-2.7-17.82c.82-.63,3.53,1.06,3.49,2.25-.03,.75-.85,2.74-1.19,3.47-1.1,2.31-2.82,5.62-5.43,6.3-3.07,.79-4.66-3.54-4.04-6.09,.74-3.04,4.21-5.74,6.95-6.2m-21.17,1.58c1.99-1.98,4.09-5.47,6.57-2.54,1.92,2.26,1.02,4.49-.98,6.48-2.27,2.26-6.01,7.31-8.8,2.54-1.95-3.34,5.7-7.88,4.51-9.28m16.54,39.56c2.13-2.12,4.08-2.87,6.98-2.06,3.48,.97,.24,5.37-1.14,6.75-1.83,1.82-4.62,5.42-7.06,2.53-.67-.79-2.22-2.01-2.17-3.23,.06-1.55,2.4-3,3.4-4Z"/><path class="cls-1" d="M1073.96,147.92c.89,.2,2.43,2.22,3.09,3.03,.79,.95,2.47,1.75,3.52,2.43,1.87,1.22,4.01,2.77,5.5,4.55,1.38,1.65,3.11,4.01,2.95,6.37-.18,2.53,.81,5.31-1.07,7.25-1.8,1.86-4.22,2.22-6.42,3.32-1.58,.8-4.62,2.89-5.59,4.44-.77,1.24-2.64,2.23-3.64,3.31-1.39,1.51-7.31,.96-9-.05-2.23-1.32-3.78-1.9-4.67-4.57-.72-2.2-1.09-4.78-.93-7.11,.18-2.63,2.09-4.21,2.35-6.73,.32-3.18-.3-6-.53-9.13-.35-4.83-2.04-12.96,4.34-13.27,4.55-.22,11.74,3.13,12.58,8.4m4.65,36.3c1.11,.09,4.5-.22,4.92,.83,.55,1.35,1.43,3.15,1.48,4.61,.06,1.56,1.02,2.94,.82,4.56-.14,1.15-3,.56-3.71,.5-2.6-.22-6.67,.38-7.49-3-.46-1.86-.28-4.77,.24-6.6,.3-1.06,2.72-3.61,3.43-1.75m7.05-36.93c.03-.48,.05-.93,.09-1.34m0,0c.12-1.53,.41-2.67,2.11-3.52,1.75-.88,3.42-1.88,5.41-1.82,2.14,.06,2.66-.61,4.23,1.38,.99,1.24,1.16,3.61,.04,4.88-2.46,2.8-3.29,5.65-7.32,5.31-1.36-.12-2.89-.46-4.06-1.25-1.12-.77-.56-3.57-.41-4.97Zm0,0c.01-.1,.02-.19,.02-.28m5.37,31.47c.53-.02,2.93-1.92,3.56-2.32,1.42-.9,4.11,.1,4.77,1.59,.55,1.27,1.92,2.27,2.46,3.7,.67,1.77,.83,3.07,.7,4.96-.16,2.4-5.19,3.31-6.74,2.05-1.07-.87-1.4-1.73-2.02-2.98-.5-1.03-1.53-1.58-1.81-2.83-.17-.77-.97-1.28-1.06-1.93-.09-.7,.09-1.53,.14-2.23Zm3.73-16c.77-4.74,6.63-4.37,9.66-3.63,3.17,.77,4.35,4.66,3.99,7.66-.34,2.82-7.6,1.79-9.11,1.66-1.23-.11-6.9-4.66-4.54-5.69Z"/><path class="cls-1" d="M1148.36,80.48c.91,.11,2.6,1.97,3.33,2.71,.87,.87,2.61,1.5,3.71,2.08,1.96,1.03,4.22,2.37,5.85,3.99,1.52,1.51,3.44,3.69,3.47,6.06,.04,2.54,1.26,5.21-.45,7.33-1.63,2.03-4.01,2.63-6.11,3.94-1.51,.95-4.36,3.33-5.19,4.97-.67,1.31-2.44,2.49-3.34,3.66-1.26,1.64-7.2,1.68-8.98,.84-2.33-1.1-3.92-1.51-5.02-4.09-.91-2.12-1.49-4.66-1.53-6.99-.04-2.63,1.73-4.4,1.77-6.94,.06-3.21-.79-5.95-1.28-9.05-.75-4.78-3.12-12.71,3.21-13.65,4.5-.67,11.94,1.96,13.22,7.13m7.68,35.71c1.1-.01,4.45-.66,4.96,.34,.66,1.29,1.69,3,1.86,4.45,.19,1.55,1.26,2.83,1.2,4.46-.05,1.15-2.94,.85-3.66,.86-2.6,.03-6.6,1.04-7.7-2.25-.61-1.81-.68-4.72-.31-6.6,.21-1.08,2.4-3.86,3.26-2.08m3.92-37.49c0-.48-.02-.93-.02-1.35m0,0c-.01-1.54,.18-2.7,1.8-3.72,1.68-1.05,3.25-2.21,5.24-2.35,2.13-.15,2.59-.87,4.33,.96,1.08,1.14,1.45,3.48,.45,4.85-2.23,3.04-2.81,5.96-6.85,6.01-1.37,.02-2.92-.17-4.14-.85-1.19-.66-.87-3.5-.83-4.91Zm0,0v-.28m7.98,30.82c.53-.07,2.76-2.2,3.35-2.67,1.34-1.04,4.1-.31,4.88,1.11,.66,1.21,2.1,2.07,2.76,3.44,.81,1.7,1.09,2.97,1.12,4.87,.04,2.41-4.9,3.81-6.55,2.71-1.13-.76-1.53-1.59-2.25-2.77-.59-.98-1.66-1.43-2.04-2.64-.24-.75-1.08-1.18-1.22-1.81-.15-.69-.04-1.53-.05-2.24Zm2.37-16.31c.37-4.8,6.23-5.01,9.31-4.57,3.22,.46,4.72,4.22,4.62,7.24-.11,2.84-7.42,2.54-8.93,2.56-1.23,.02-7.26-3.96-5-5.22Z"/><path class="cls-1" d="M987.37,89.11c-1.2,3.85,2.11,7.99,4.05,10.92,.52,.79,1.46,1.8,2.09,2.52,.77,.87,1.27,2.05,2.01,2.96,1,1.24,1.55,3.79,1.57,5.37,.03,2.22-.76,4.21-1.53,6.26-1.42,3.8-5.48,2.89-8.71,3.46-2.12,.38-4.55,.38-6.7,.5-1.94,.11-3.73,.97-5.64,1.35-1.2,.24-1.94,.65-3.18,.46-1.87-.29-3.56-1.36-5.38-1.89-1.15-.33-2.56-.86-3.07-2.18-.63-1.61-1.16-5.27-.54-6.94,.87-2.32,1.41-4.98,3.36-6.48,1.85-1.42,2.94-2.53,3.8-4.83,.93-2.49,2.92-5.9,3.14-8.61,.33-4.05,.12-6.78,4.17-9.16,2.22-1.31,6.21,.65,8.02,2.18,1,.84,2.08,1.69,2.6,2.94,.38,.89,.07,2.64,.25,1.3m11.16,38.68c-.24,.98,1.59,2.49,1.97,3.34,.56,1.25,.63,2.43,.14,3.74-1.11,2.98-4.42,1.8-6.48,.89-2.8-1.25-2.85-5.29-3.15-7.95-.55-4.88,7.22-2.15,8.85-.63m13.7-10.17c.88,.54,.64,3.91-.38,4.37-.63,.29-2.65,.33-3.4,.29-2.41-.11-5.91-.39-7.59-2.67-1.99-2.68,.95-6.07,3.34-6.53,2.85-.55,6.6,1.71,8.16,4.2m-10.43-20.11c2.51,1.12,6.33,1.7,4.95,5.37-1.06,2.83-3.3,2.89-5.83,1.77-2.87-1.28-8.69-2.81-5.91-7.56,1.95-3.32,9.03,2.26,9.68,.52m-25.89,32.91c2.69,1.2,4.15,2.79,4.72,5.98,.69,3.82-4.38,2.51-6.12,1.73-2.31-1.03-6.51-2.24-5.15-5.86,.37-.99,.72-3.02,1.76-3.49,1.32-.6,3.54,1.09,4.8,1.65Z"/><path class="cls-1" d="M1062.12,23.42c.37,4.06,4.95,6.35,7.83,8.17,.77,.49,2.01,1,2.86,1.37,1.03,.45,1.93,1.31,2.94,1.81,1.38,.68,2.85,2.77,3.47,4.2,.87,2.01,.9,4.18,.98,6.4,.15,4.1-3.89,5.09-6.6,7.05-1.79,1.29-4,2.38-5.91,3.45-1.73,.97-3.02,2.55-4.61,3.75-1.01,.76-1.52,1.46-2.73,1.84-1.81,.56-3.75,.34-5.61,.68-1.17,.21-2.65,.35-3.62-.62-1.18-1.19-3.05-4.3-3.12-6.1-.09-2.51-.6-5.18,.6-7.42,1.15-2.12,1.72-3.62,1.63-6.11-.09-2.69,.42-6.7-.4-9.26-1.25-3.85-2.47-6.25,.31-10.23,1.52-2.18,5.89-2.17,8.12-1.59,1.22,.32,2.53,.62,3.48,1.53,.68,.65,1.07,2.37,.72,1.08m24.83,30.35c.15,1.01,2.38,1.57,3.05,2.18,.98,.89,1.5,1.94,1.55,3.36,.12,3.22-3.34,3.62-5.56,3.7-3.02,.11-4.59-3.56-5.88-5.85-2.35-4.21,5.75-5.18,7.81-4.52m8.61-15.4c1.01,.1,2.06,3.29,1.32,4.16-.47,.55-2.29,1.48-2.99,1.79-2.23,.97-5.52,2.27-7.92,.95-2.82-1.56-1.44-5.97,.56-7.46,2.39-1.78,6.65-1.38,9.02,.2m-17.11-13.71c2.7-.1,6.39-1.27,6.54,2.7,.11,3.06-1.91,4.12-4.64,4.22-3.09,.11-8.97,1.31-8.23-4.27,.51-3.9,9.06-1.96,9-3.85m-11.06,41.61c2.89-.11,4.83,.7,6.56,3.35,2.08,3.18-3.03,4.24-4.91,4.31-2.49,.09-6.78,.85-6.92-3.06-.03-1.08-.49-3.08,.28-3.97,.97-1.13,3.63-.58,4.99-.63Z"/><path class="cls-1" d="M1236.22,143.6c.37,4.06,4.95,6.35,7.83,8.17,.77,.49,2.01,1,2.86,1.37,1.03,.45,1.93,1.31,2.95,1.81,1.37,.68,2.84,2.77,3.46,4.2,.87,2.01,.91,4.18,.98,6.4,.15,4.1-3.88,5.09-6.6,7.05-1.78,1.29-4,2.38-5.91,3.45-1.72,.97-3.02,2.55-4.61,3.75-1.01,.76-1.52,1.46-2.73,1.84-1.81,.56-3.75,.34-5.6,.68-1.18,.21-2.66,.35-3.63-.62-1.17-1.19-3.05-4.3-3.12-6.1-.09-2.51-.6-5.18,.61-7.42,1.14-2.12,1.71-3.62,1.62-6.11-.09-2.69,.43-6.7-.4-9.26-1.24-3.84-2.46-6.25,.31-10.23,1.52-2.18,5.89-2.17,8.12-1.59,1.22,.32,2.53,.62,3.48,1.53,.68,.65,1.07,2.38,.72,1.08m24.83,30.35c.15,1.01,2.39,1.57,3.05,2.18,.99,.89,1.5,1.94,1.55,3.35,.12,3.22-3.34,3.62-5.55,3.7-3.03,.11-4.6-3.56-5.88-5.85-2.36-4.21,5.74-5.18,7.8-4.52m8.61-15.4c1.01,.1,2.06,3.29,1.32,4.16-.47,.55-2.29,1.48-2.99,1.79-2.23,.97-5.52,2.27-7.92,.95-2.82-1.56-1.44-5.97,.56-7.46,2.39-1.78,6.65-1.38,9.02,.2m-17.11-13.71c2.71-.1,6.4-1.27,6.54,2.7,.11,3.06-1.91,4.12-4.64,4.22-3.09,.11-8.96,1.31-8.23-4.27,.51-3.9,9.07-1.96,9-3.85m-11.06,41.61c2.9-.11,4.83,.7,6.56,3.35,2.08,3.18-3.03,4.24-4.91,4.31-2.49,.09-6.77,.85-6.91-3.06-.04-1.08-.5-3.08,.27-3.98,.97-1.13,3.63-.58,4.99-.63Z"/><path class="cls-1" d="M1231.61,40.73c2.71,2.84,7.55,1.37,10.82,.73,.88-.17,2.13-.66,2.99-.97,1.05-.38,2.24-.36,3.31-.69,1.46-.45,3.82,.11,5.15,.77,1.86,.93,3.19,2.56,4.57,4.2,2.57,3.03,.1,6.62-.78,10.03-.58,2.24-1.6,4.63-2.41,6.79-.73,1.96-.76,4.07-1.25,6.11-.31,1.29-.28,2.19-.96,3.32-1.04,1.71-2.64,2.91-3.85,4.47-.76,.99-1.8,2.14-3.11,2.07-1.61-.08-4.89-1.13-6.01-2.46-1.57-1.85-3.57-3.53-3.99-6.09-.41-2.42-.87-3.97-2.43-5.81-1.68-1.99-3.69-5.41-5.85-6.79-3.25-2.06-5.61-3.04-5.89-8.03-.16-2.74,3.16-5.81,5.2-6.93,1.12-.62,2.28-1.31,3.55-1.29,.91,.02,2.23,1.06,1.19,.32m36.98,5.69c.72,.66,2.75-.48,3.61-.49,1.28-.01,2.3,.42,3.19,1.47,2.01,2.38-.37,5.12-1.99,6.74-2.23,2.21-5.62,.52-7.96-.33-4.3-1.56,1.25-8,3.21-8.95m-2.71-17.82c.83-.63,3.54,1.06,3.49,2.25-.03,.75-.85,2.74-1.19,3.47-1.11,2.31-2.82,5.62-5.43,6.3-3.08,.79-4.67-3.54-4.04-6.09,.74-3.04,4.2-5.74,6.94-6.2m-21.17,1.58c1.99-1.98,4.09-5.47,6.57-2.54,1.92,2.26,1.02,4.49-.98,6.48-2.27,2.26-6.01,7.31-8.8,2.54-1.95-3.34,5.7-7.88,4.51-9.28m16.54,39.56c2.13-2.12,4.08-2.87,6.98-2.06,3.48,.97,.25,5.37-1.14,6.75-1.83,1.82-4.62,5.42-7.06,2.53-.68-.79-2.22-2.01-2.18-3.23,.06-1.55,2.4-3,3.4-4Z"/></svg>